<mxfile host="app.diagrams.net" modified="2022-02-16T06:50:50.099Z" agent="5.0 (iPad; CPU OS 15_0 like Mac OS X) AppleWebKit/605.1.15 (KHTML, like Gecko) CriOS/97.0.4692.84 Mobile/15E148 Safari/604.1" etag="05Uye5S7AhIyhvoB2MSZ" version="16.5.6" type="github">
  <diagram id="prtHgNgQTEPvFCAcTncT" name="Page-1">
    <mxGraphModel dx="819" dy="635" grid="1" gridSize="10" guides="1" tooltips="1" connect="1" arrows="1" fold="1" page="1" pageScale="1" pageWidth="827" pageHeight="1169" math="0" shadow="0">
      <root>
        <mxCell id="0" />
        <mxCell id="1" parent="0" />
        <mxCell id="mFB66o9sB7t4NMZbkuxG-1" value="" style="swimlane;startSize=0;" vertex="1" parent="1">
          <mxGeometry x="270" y="170" width="180" height="60" as="geometry" />
        </mxCell>
        <mxCell id="mFB66o9sB7t4NMZbkuxG-2" value="Application image" style="text;html=1;align=center;verticalAlign=middle;resizable=0;points=[];autosize=1;strokeColor=none;fillColor=none;fontSize=18;" vertex="1" parent="mFB66o9sB7t4NMZbkuxG-1">
          <mxGeometry x="10" y="15" width="160" height="30" as="geometry" />
        </mxCell>
        <mxCell id="mFB66o9sB7t4NMZbkuxG-3" value="" style="swimlane;startSize=0;" vertex="1" parent="1">
          <mxGeometry x="270" y="230" width="180" height="60" as="geometry" />
        </mxCell>
        <mxCell id="mFB66o9sB7t4NMZbkuxG-4" value="Python image" style="text;html=1;align=center;verticalAlign=middle;resizable=0;points=[];autosize=1;strokeColor=none;fillColor=none;fontSize=18;" vertex="1" parent="mFB66o9sB7t4NMZbkuxG-3">
          <mxGeometry x="25" y="15" width="130" height="30" as="geometry" />
        </mxCell>
        <mxCell id="mFB66o9sB7t4NMZbkuxG-5" value="" style="swimlane;startSize=0;" vertex="1" parent="1">
          <mxGeometry x="270" y="290" width="180" height="60" as="geometry" />
        </mxCell>
        <mxCell id="mFB66o9sB7t4NMZbkuxG-6" value="MySQL image" style="text;html=1;align=center;verticalAlign=middle;resizable=0;points=[];autosize=1;strokeColor=none;fillColor=none;fontSize=18;" vertex="1" parent="mFB66o9sB7t4NMZbkuxG-5">
          <mxGeometry x="25" y="15" width="130" height="30" as="geometry" />
        </mxCell>
        <mxCell id="mFB66o9sB7t4NMZbkuxG-7" value="" style="swimlane;startSize=0;" vertex="1" parent="1">
          <mxGeometry x="270" y="350" width="180" height="60" as="geometry" />
        </mxCell>
        <mxCell id="mFB66o9sB7t4NMZbkuxG-8" value="Nginx image" style="text;html=1;align=center;verticalAlign=middle;resizable=0;points=[];autosize=1;strokeColor=none;fillColor=none;fontSize=18;" vertex="1" parent="mFB66o9sB7t4NMZbkuxG-7">
          <mxGeometry x="30" y="15" width="120" height="30" as="geometry" />
        </mxCell>
      </root>
    </mxGraphModel>
  </diagram>
</mxfile>
